<svg width="425" height="350" viewBox="0 0 425 350" fill="none" xmlns="http://www.w3.org/2000/svg">
<g clip-path="url(#clip0_3_195)">
<mask id="mask0_3_195" style="mask-type:luminance" maskUnits="userSpaceOnUse" x="0" y="0" width="425" height="350">
<path d="M424.71 0H0V349.3H424.71V0Z" fill="white"/>
</mask>
<g mask="url(#mask0_3_195)">
<mask id="mask1_3_195" style="mask-type:luminance" maskUnits="userSpaceOnUse" x="0" y="0" width="425" height="350">
<path d="M424.71 0H0V349.3H424.71V0Z" fill="white"/>
</mask>
<g mask="url(#mask1_3_195)">
<path d="M246.47 211.75C290.92 210.52 328.39 181.35 341.94 141.17H103.57V141.2C46.42 141.46 0 188.03 0 245.24C0 302.45 46.27 348.87 103.3 349.28V349.3H341.94C328.4 309.12 290.93 279.94 246.47 278.72H104.06C85.91 278.72 70.59 263.39 70.59 245.24C70.59 227.09 85.92 211.77 104.06 211.77V211.75H246.48H246.47Z" fill="#37E67D"/>
<path d="M225.04 0C180.59 1.23 143.12 30.4 129.57 70.58H329.24C373.69 69.35 411.16 40.18 424.71 0H225.04Z" fill="#023697"/>
</g>
</g>
</g>
<defs>
<clipPath id="clip0_3_195">
<rect width="424.71" height="349.3" fill="white"/>
</clipPath>
</defs>
</svg>
