<svg width="149" height="16" viewBox="0 0 149 16" fill="none" xmlns="http://www.w3.org/2000/svg">
<g clip-path="url(#clip0_453_608)">
<mask id="mask0_453_608" style="mask-type:luminance" maskUnits="userSpaceOnUse" x="0" y="0" width="149" height="16">
<path d="M149 0H0V16H149V0Z" fill="white"/>
</mask>
<g mask="url(#mask0_453_608)">
<mask id="mask1_453_608" style="mask-type:luminance" maskUnits="userSpaceOnUse" x="0" y="0" width="149" height="16">
<path d="M149 0H0V16H149V0Z" fill="white"/>
</mask>
<g mask="url(#mask1_453_608)">
<path d="M63.8868 9.80866V9.80538H62.22C61.5859 9.80538 60.9855 9.55365 60.5293 9.09616C60.3896 8.95607 60.2695 8.80284 60.1702 8.63867H64.0341C65.7172 8.63867 67.086 7.26621 67.086 5.57855C67.086 3.89088 65.7172 2.51842 64.0341 2.51842V2.51514H62.1676V2.51951C60.8928 2.53374 59.6932 3.04048 58.7829 3.95327C57.8606 4.87918 57.3519 6.1028 57.3519 7.39974C57.3519 8.69668 57.8606 9.92139 58.7829 10.8462C59.655 11.7207 60.7945 12.2231 62.0094 12.2756V12.2811H63.8879H67.086C66.7138 10.8593 65.4214 9.80756 63.8879 9.80756M60.5282 5.70441C60.9844 5.24692 61.5848 4.9952 62.2189 4.9952V4.99191H64.0319V4.9941C64.3474 4.9941 64.6137 5.26115 64.6137 5.57745C64.6137 5.89375 64.3474 6.1608 64.0319 6.1608H60.168C60.2673 5.99663 60.3885 5.84341 60.5271 5.70332" fill="white"/>
<path d="M54.7476 9.79219C54.2946 9.79219 53.9115 9.40803 53.9115 8.95383V4.97544H54.7476V4.97216C56.2811 4.97216 57.5724 3.92038 57.9457 2.49867H53.9104V0C52.5231 0.365552 51.4905 1.61324 51.4458 3.10609H51.4425V8.95383C51.4425 10.7816 52.9259 12.269 54.7487 12.269C54.7683 12.269 57.9479 12.2624 57.9479 12.2624C57.5778 10.8374 56.2833 9.79219 54.7487 9.79219" fill="white"/>
<path d="M49.4516 2.49976V2.50632C48.1571 2.50632 46.9368 3.01634 46.0145 3.94117C45.1009 4.85724 44.5944 6.06662 44.5846 7.35043V12.2777H47.0547V7.38764C47.0547 6.75176 47.3057 6.1498 47.762 5.69231C48.2182 5.23483 48.8185 4.9831 49.4527 4.9831L50.5966 4.97653V2.49976H49.4527H49.4516Z" fill="white"/>
<path d="M19.5063 6.16617H15.8727C15.5539 6.16617 15.2843 5.89584 15.2843 5.57626C15.2843 5.25667 15.5539 4.98634 15.8727 4.98634H19.384C20.9056 4.97868 22.1859 3.93237 22.5538 2.52051H15.8716C14.1907 2.52051 12.8241 3.89187 12.8241 5.57626C12.8241 7.26064 14.1918 8.63201 15.8727 8.63201H19.5063C19.825 8.63201 20.0946 8.90234 20.0946 9.22192C20.0946 9.54151 19.825 9.81184 19.5063 9.81184L15.7701 9.8206C14.3489 9.92348 13.1745 10.9348 12.8241 12.2777H19.5063C21.1872 12.2777 22.5538 10.9063 22.5538 9.22192C22.5538 7.53754 21.1861 6.16617 19.5052 6.16617" fill="white"/>
<path d="M31.7059 3.96097C30.7836 3.03505 29.5622 2.52612 28.2688 2.52612H23.4072V16.0001C24.8262 15.628 25.8773 14.331 25.8773 12.7933V12.2899H28.2688C29.5622 12.2899 30.7836 11.7798 31.7059 10.855C32.6282 9.93019 33.1369 8.70548 33.1369 7.40854C33.1369 6.11159 32.6282 4.88689 31.7059 3.96206M29.9595 9.10277C29.5033 9.56026 28.9029 9.81198 28.2688 9.81198H25.8773V5.00181H28.2688C28.9029 5.00181 29.5033 5.25353 29.9595 5.71102C30.4158 6.16851 30.6668 6.77046 30.6668 7.40635C30.6668 8.04223 30.4158 8.64419 29.9595 9.10168" fill="white"/>
<path d="M8.62397 7.45212C10.1794 7.40943 11.4903 6.38501 11.964 4.97534H3.62379C1.62416 4.98629 0 6.62032 0 8.62758C0 10.6348 1.6187 12.2634 3.61506 12.2776H8.52246H11.9651C11.4913 10.8679 10.1805 9.84353 8.62506 9.80084H3.64235C3.00709 9.80084 2.47116 9.26346 2.47116 8.62648C2.47116 7.9895 3.00709 7.45212 3.64235 7.45212H8.62615H8.62397Z" fill="white"/>
<path d="M7.87406 0.0229492C6.31867 0.0656334 5.00777 1.09005 4.53406 2.49973H11.5208C13.0762 2.45704 14.3871 1.43372 14.8608 0.0229492H7.87406Z" fill="white"/>
<path d="M74.7145 6.16617H71.0809C70.7622 6.16617 70.4926 5.89584 70.4926 5.57626C70.4926 5.25667 70.7622 4.98634 71.0809 4.98634H74.5923C76.1138 4.97868 77.3942 3.93237 77.7631 2.52051H71.0809C69.4 2.52051 68.0334 3.89187 68.0334 5.57626C68.0334 7.26064 69.4011 8.63201 71.0809 8.63201H74.7145C75.0333 8.63201 75.3029 8.90234 75.3029 9.22192C75.3029 9.54151 75.0333 9.81184 74.7145 9.81184L70.9783 9.8206C69.5572 9.92348 68.3827 10.9348 68.0323 12.2777H74.7145C76.3954 12.2777 77.762 10.9063 77.762 9.22192C77.762 7.53754 76.3944 6.16617 74.7134 6.16617" fill="white"/>
<path d="M38.8707 12.3992C38.1983 12.3992 37.5456 12.2668 36.9311 12.0063C36.3373 11.7546 35.8046 11.3945 35.3473 10.9359C34.8899 10.4773 34.5308 9.94323 34.2798 9.34784C34.02 8.73056 33.8879 8.07607 33.8879 7.40298C33.8879 6.72988 34.02 6.07429 34.2798 5.45811C34.5308 4.86272 34.8899 4.32862 35.3473 3.87004C35.8046 3.41146 36.3373 3.05138 36.9311 2.79965C37.5467 2.53917 38.1983 2.40674 38.8707 2.40674C39.543 2.40674 40.1957 2.53917 40.8103 2.79965C41.404 3.05138 41.9367 3.41146 42.394 3.87004C42.8514 4.32862 43.2105 4.86272 43.4615 5.45811C43.7213 6.07539 43.8534 6.72879 43.8534 7.40298C43.8534 8.07717 43.7213 8.73166 43.4615 9.34784C43.2105 9.94323 42.8514 10.4773 42.394 10.9359C41.9367 11.3945 41.404 11.7546 40.8103 12.0063C40.1946 12.2668 39.543 12.3992 38.8707 12.3992ZM38.8707 5.00172C37.5499 5.00172 36.4759 6.07867 36.4759 7.40298C36.4759 8.72728 37.5499 9.80424 38.8707 9.80424C40.1914 9.80424 41.2654 8.72728 41.2654 7.40298C41.2654 6.07867 40.1914 5.00172 38.8707 5.00172Z" fill="white"/>
<path d="M111.747 4.92621H107.059V4.92402C106.42 4.92402 105.88 4.38226 105.88 3.74199C105.88 3.10173 106.42 2.55997 107.059 2.55997H112.379C113.89 2.55997 115.156 1.49068 115.466 0.0678711H107.058C105.037 0.0678711 103.394 1.71614 103.394 3.74199C103.394 5.76785 105.037 7.41612 107.058 7.41612H111.723C112.361 7.41612 112.902 7.95788 112.902 8.59923C112.902 9.24059 112.363 9.78126 111.723 9.78126H106.479C104.969 9.78126 103.703 10.8506 103.393 12.2734H111.724C113.744 12.2734 115.388 10.6251 115.388 8.59923C115.388 6.57338 113.756 4.93825 111.747 4.92511" fill="white"/>
<path d="M145.823 9.802V9.79871H144.166C143.536 9.79871 142.939 9.54808 142.485 9.09388C142.346 8.95488 142.227 8.80166 142.127 8.63967H145.967C147.639 8.63967 149 7.27597 149 5.59815C149 3.92034 147.64 2.55663 145.967 2.55663V2.55444H144.112V2.55882C142.846 2.57195 141.653 3.0765 140.748 3.98382C139.831 4.90317 139.326 6.12021 139.326 7.40949C139.326 8.69878 139.831 9.91582 140.748 10.8352C141.615 11.7042 142.747 12.2044 143.955 12.2558V12.2613H145.822H148.999C148.629 10.8483 147.344 9.80309 145.822 9.80309M142.485 5.72402C142.938 5.26981 143.535 5.01918 144.166 5.01918V5.0159H145.968V5.01809C146.281 5.01809 146.546 5.28404 146.546 5.59815C146.546 5.91227 146.281 6.17822 145.968 6.17822H142.128C142.227 6.01514 142.346 5.86301 142.486 5.72402" fill="white"/>
<path d="M136.739 9.79645C136.288 9.79645 135.909 9.41448 135.909 8.96356V5.01034H136.739V5.00706C138.263 5.00706 139.547 3.96185 139.917 2.54889H135.906V0.0644531C134.528 0.427816 133.501 1.66785 133.457 3.15194H133.454V8.96356C133.454 10.7804 134.927 12.2579 136.739 12.2579C136.759 12.2579 136.777 12.259 136.796 12.2612L139.919 12.2513C139.551 10.8351 138.265 9.79645 136.739 9.79645Z" fill="white"/>
<path d="M131.477 2.54346V2.55002C130.191 2.55002 128.977 3.05676 128.061 3.97611C127.152 4.88671 126.649 6.08843 126.639 7.36458V12.2612H129.094V7.40179C129.094 6.77029 129.344 6.17161 129.797 5.71631C130.251 5.26211 130.847 5.01148 131.478 5.01148V5.00491H132.615V2.54346H131.478H131.477Z" fill="white"/>
<path d="M120.961 12.3609C120.293 12.3609 119.645 12.2295 119.034 11.9701C118.444 11.7195 117.915 11.3616 117.46 10.9063C117.006 10.451 116.649 9.92021 116.399 9.32811C116.14 8.71521 116.009 8.06509 116.009 7.39528C116.009 6.72547 116.14 6.07535 116.399 5.46245C116.648 4.87144 117.005 4.34063 117.46 3.88423C117.914 3.42894 118.443 3.07104 119.034 2.82041C119.645 2.56102 120.293 2.42969 120.961 2.42969C121.629 2.42969 122.278 2.56102 122.889 2.82041C123.478 3.07104 124.008 3.42784 124.463 3.88423C124.917 4.33953 125.274 4.87035 125.524 5.46245C125.783 6.07535 125.914 6.72547 125.914 7.39528C125.914 8.06509 125.783 8.71521 125.524 9.32811C125.275 9.91912 124.918 10.4499 124.463 10.9063C124.009 11.3616 123.48 11.7195 122.889 11.9701C122.278 12.2295 121.629 12.3609 120.961 12.3609ZM120.961 5.00934C119.649 5.00934 118.581 6.07973 118.581 7.39637C118.581 8.71302 119.648 9.78341 120.961 9.78341C122.275 9.78341 123.342 8.71302 123.342 7.39637C123.342 6.07973 122.275 5.00934 120.961 5.00934Z" fill="white"/>
<path d="M97.4647 2.55005H90.8316C91.2016 3.963 92.4864 5.00822 94.009 5.00822V5.0115H97.4636C97.7769 5.0115 98.0421 5.27746 98.0421 5.59157C98.0421 5.90568 97.7769 6.17164 97.4636 6.17164H93.8595C92.1873 6.17164 90.8262 7.53534 90.8262 9.21316C90.8262 10.891 92.1873 12.2547 93.8595 12.2547V12.2569L100.496 12.2547V5.59266C100.496 3.91594 99.1347 2.55114 97.4636 2.55114M98.0432 9.79541H93.8605V9.79323C93.5473 9.79323 93.2821 9.52727 93.2821 9.21316C93.2821 8.89905 93.5473 8.63309 93.8605 8.63309H98.0432V9.79541Z" fill="white"/>
<path d="M87.6095 2.54453H85.1678C83.8831 2.54453 82.6715 3.05127 81.7546 3.97062C80.8378 4.88997 80.3324 6.10702 80.3324 7.3963C80.3324 8.68558 80.8378 9.90263 81.7546 10.822C82.6704 11.7402 83.8831 12.247 85.1678 12.2481H89.9867V0.0688477C88.8014 0.379676 87.8758 1.33952 87.6095 2.54562M85.1721 9.78661C84.5423 9.78661 83.9453 9.53598 83.4912 9.08178C83.0371 8.62757 82.7883 8.0289 82.7883 7.3963C82.7883 6.7637 83.0382 6.16612 83.4912 5.71082C83.9442 5.25662 84.5412 5.00598 85.1721 5.00598H87.533V9.78661H85.1721Z" fill="white"/>
</g>
</g>
</g>
<defs>
<clipPath id="clip0_453_608">
<rect width="149" height="16" fill="white"/>
</clipPath>
</defs>
</svg>
