<svg width="101" height="35" viewBox="0 0 101 35" fill="none" xmlns="http://www.w3.org/2000/svg">
<mask id="mask0_109_4179" style="mask-type:luminance" maskUnits="userSpaceOnUse" x="0" y="0" width="101" height="35">
<path d="M101 0H0V35H101V0Z" fill="white"/>
</mask>
<g mask="url(#mask0_109_4179)">
<mask id="mask1_109_4179" style="mask-type:luminance" maskUnits="userSpaceOnUse" x="0" y="0" width="101" height="35">
<path d="M101 0H0V35H101V0Z" fill="white"/>
</mask>
<g mask="url(#mask1_109_4179)">
<path d="M82.978 12.7234V12.7193H80.8121C79.9887 12.7193 79.2087 12.3928 78.6152 11.7992C78.4338 11.6176 78.2775 11.4183 78.1479 11.2057H83.1669C85.3529 11.2057 87.1309 9.42503 87.1309 7.23586C87.1309 5.04668 85.3529 3.26604 83.1669 3.26604V3.2627H80.7435V3.26856C79.0884 3.28614 77.5293 3.94414 76.3473 5.12789C75.1486 6.32838 74.489 7.91563 74.489 9.59916C74.489 11.2827 75.1494 12.8699 76.3473 14.0704C77.48 15.2056 78.9596 15.8569 80.5379 15.9247V15.9314H82.9772H87.1301C86.6461 14.0872 84.9675 12.7226 82.9772 12.7226M78.6161 7.39994C79.2087 6.80639 79.9887 6.4799 80.8129 6.4799V6.47572H83.1677V6.47906C83.5774 6.47906 83.9234 6.82565 83.9234 7.2367C83.9234 7.64774 83.5774 7.99349 83.1677 7.99349H78.1488C78.2783 7.78085 78.4347 7.5816 78.6161 7.39994Z" fill="white"/>
<path d="M71.1068 12.7031C70.5183 12.7031 70.0209 12.205 70.0209 11.6156V6.45534H71.1068V6.45116C73.098 6.45116 74.7766 5.08659 75.2597 3.24232H70.0184V0C68.2169 0.473833 66.8753 2.0929 66.8176 4.02925H66.8126V11.6156C66.8126 13.9864 68.7386 15.9153 71.106 15.9153C71.131 15.9153 75.2614 15.9069 75.2614 15.9069C74.7807 14.0584 73.0997 12.7031 71.106 12.7031" fill="white"/>
<path d="M64.2295 3.24243V3.2508C62.5484 3.2508 60.9635 3.91216 59.7647 5.11181C58.5777 6.30058 57.9198 7.86942 57.9073 9.53453H57.9056V15.9262H61.1131V9.58308C61.1131 8.75848 61.4391 7.97657 62.0318 7.38303C62.6245 6.78948 63.4044 6.46299 64.2287 6.46299L65.715 6.45462V3.24243H64.2287H64.2295Z" fill="white"/>
<path d="M25.3349 7.99949H20.6152C20.2014 7.99949 19.8511 7.64955 19.8511 7.23432C19.8511 6.81909 20.2014 6.46916 20.6152 6.46916H25.1769C27.1522 6.45995 28.8157 5.10208 29.2947 3.26953H20.6152C18.4325 3.26953 16.657 5.0485 16.657 7.23432C16.657 9.42015 18.4325 11.1991 20.616 11.1991H25.3357C25.7495 11.1991 26.0998 11.5499 26.0998 11.9643C26.0998 12.3787 25.7503 12.7294 25.3357 12.7294L20.4831 12.7412C18.6365 12.8751 17.1117 14.1869 16.657 15.9282H25.3357C27.5184 15.9282 29.2939 14.1501 29.2939 11.9634C29.2939 9.77678 27.5184 7.99865 25.3349 7.99865" fill="white"/>
<path d="M41.1801 5.13737C39.9813 3.93689 38.3956 3.27637 36.7153 3.27637H30.4006V20.7554C32.2439 20.2724 33.6081 18.5905 33.6081 16.5948V15.9418H36.7145C38.3947 15.9418 39.9805 15.2804 41.1792 14.0808C42.378 12.8803 43.0375 11.293 43.0375 9.60949C43.0375 7.92596 42.3772 6.3387 41.1792 5.13821M38.9113 11.8079C38.3187 12.4014 37.5387 12.7279 36.7153 12.7279H33.609V6.48771H36.7153C37.5387 6.48771 38.3187 6.81421 38.9113 7.40775C39.504 8.0013 39.83 8.78237 39.83 9.60697C39.83 10.4316 39.504 11.2135 38.9113 11.807" fill="white"/>
<path d="M11.2016 9.66726C13.2221 9.61117 14.9249 8.28344 15.5401 6.45508H4.70718V6.45675C2.10991 6.46764 0 8.58733 0 11.1917C0 13.7961 2.10323 15.9083 4.69464 15.9267L11.0687 15.9275H15.5401C14.9249 14.0984 13.2221 12.7706 11.2016 12.7154H4.72892C3.90468 12.7154 3.2075 12.018 3.2075 11.1917C3.2075 10.3655 3.90384 9.6681 4.72892 9.6681L11.2016 9.66726Z" fill="white"/>
<path d="M10.2277 0.0300293C8.20727 0.086119 6.50446 1.41386 5.88921 3.24221H14.9642C16.9846 3.18612 18.6875 1.85839 19.3027 0.0300293H10.2277Z" fill="white"/>
<path d="M97.0411 7.99949H92.3214C91.9076 7.99949 91.5573 7.64955 91.5573 7.23432C91.5573 6.81909 91.9076 6.46916 92.3214 6.46916H96.8831C98.8584 6.45995 100.522 5.10208 101.001 3.26953H92.3222C90.1395 3.26953 88.364 5.0485 88.364 7.23432C88.364 9.42015 90.1396 11.1991 92.323 11.1991H97.0427C97.4565 11.1991 97.8068 11.5499 97.8068 11.9643C97.8068 12.3787 97.4574 12.7294 97.0427 12.7294L92.1901 12.7412C90.3435 12.8751 88.8188 14.1869 88.364 15.9282H97.0427C99.2254 15.9282 101.001 14.1501 101.001 11.9634C101.001 9.77678 99.2254 7.99865 97.0419 7.99865" fill="white"/>
<path d="M50.4849 16.084C49.6122 16.084 48.7646 15.9123 47.9654 15.5741C47.1947 15.2476 46.5025 14.7805 45.909 14.1861C45.3155 13.5917 44.849 12.8986 44.523 12.1267C44.1853 11.3264 44.0139 10.4775 44.0139 9.6035C44.0139 8.72951 44.1853 7.88063 44.523 7.0803C44.849 6.30844 45.3155 5.61527 45.909 5.02089C46.5025 4.42651 47.1947 3.95937 47.9654 3.63288C48.7646 3.29466 49.6122 3.12305 50.4849 3.12305C51.3577 3.12305 52.2053 3.29466 53.0045 3.63288C53.7752 3.95937 54.4673 4.42651 55.0609 5.02089C55.6544 5.61527 56.1208 6.30844 56.4469 7.0803C56.7846 7.88063 56.9559 8.72951 56.9559 9.6035C56.9559 10.4775 56.7846 11.3264 56.4469 12.1267C56.1208 12.8986 55.6544 13.5917 55.0609 14.1861C54.4673 14.7805 53.7752 15.2476 53.0045 15.5741C52.2053 15.9123 51.3577 16.084 50.4849 16.084ZM50.4849 6.48843C48.7696 6.48843 47.3744 7.88565 47.3744 9.6035C47.3744 11.3214 48.7696 12.7186 50.4849 12.7186C52.2003 12.7186 53.5955 11.3214 53.5955 9.6035C53.5955 7.88565 52.2003 6.48843 50.4849 6.48843Z" fill="white"/>
<path d="M46.424 25.2957L40.2974 25.2941C39.4622 25.2941 38.7567 24.5875 38.7567 23.7512C38.7567 22.9148 39.4622 22.2083 40.2974 22.2083H47.2507C49.2252 22.2083 50.8804 20.8127 51.2858 18.9551H40.2982C37.6575 18.9551 35.5091 21.1066 35.5091 23.7512C35.5091 26.3958 37.6575 28.5473 40.2982 28.5473H46.3955C47.2306 28.5481 47.9362 29.2547 47.9362 30.091C47.9362 30.9273 47.2306 31.6339 46.3955 31.6339H39.5425C37.568 31.6339 35.9128 33.0294 35.5074 34.8871H46.3955C49.0363 34.8871 51.1846 32.7356 51.1846 30.091C51.1846 27.4464 49.0522 25.3116 46.4256 25.2957" fill="white"/>
<path d="M90.9578 31.6606V31.6564H88.7919C87.9685 31.6564 87.1878 31.329 86.5951 30.7355C86.4137 30.5538 86.2574 30.3546 86.1278 30.1419H91.1468C93.3328 30.1419 95.1108 28.3613 95.1108 26.1721C95.1108 23.983 93.3328 22.2023 91.1468 22.2023V22.199H88.7234V22.2048C87.0682 22.2224 85.5092 22.8804 84.3272 24.0642C83.1284 25.2647 82.4689 26.8527 82.4689 28.5354C82.4689 30.2181 83.1293 31.8062 84.3272 33.0067C85.4599 34.1419 86.9395 34.7932 88.5177 34.861V34.8677H90.957H95.11C94.626 33.0235 92.9482 31.6589 90.957 31.6589M86.5959 26.3371C87.1886 25.7435 87.9685 25.417 88.7928 25.417V25.4128H91.1476V25.4162C91.5572 25.4162 91.9033 25.7628 91.9033 26.173C91.9033 26.5832 91.5572 26.9298 91.1476 26.9298H86.1286C86.2582 26.7171 86.4145 26.5179 86.5959 26.3362" fill="white"/>
<path d="M79.0866 31.653C78.4981 31.653 78.0008 31.1549 78.0008 30.5655V25.4053H79.0866V25.4011C81.0779 25.4011 82.7564 24.0365 83.2396 22.1923H77.9982V18.95C76.1968 19.4238 74.8551 21.0429 74.7974 22.9792H74.7924V30.5655C74.7924 32.9364 76.7184 34.8652 79.0858 34.8652C79.1109 34.8652 79.1351 34.8677 79.1602 34.8694L83.2413 34.8568C82.7606 33.0084 81.0795 31.653 79.0858 31.653" fill="white"/>
<path d="M72.2094 22.1848V22.1932C70.5283 22.1932 68.9434 22.8545 67.7446 24.0542C66.5576 25.243 65.8997 26.8118 65.8872 28.4769H65.8863V34.8686H69.0938V28.5255C69.0938 27.7009 69.4198 26.919 70.0125 26.3254C70.6052 25.7319 71.3851 25.4054 72.2094 25.4054V25.397H73.6957V22.1848H72.2094Z" fill="white"/>
<path d="M58.4657 35C57.593 35 56.7453 34.8284 55.9462 34.4901C55.1754 34.1637 54.4833 33.6965 53.8897 33.1021C53.2962 32.5078 52.8298 31.8146 52.5037 31.0427C52.166 30.2424 51.9947 29.3935 51.9947 28.5195C51.9947 27.6455 52.166 26.7966 52.5037 25.9963C52.8298 25.2245 53.2962 24.5313 53.8897 23.9369C54.4833 23.3425 55.1754 22.8754 55.9462 22.5489C56.7453 22.2107 57.593 22.0391 58.4657 22.0391C59.3384 22.0391 60.186 22.2107 60.9852 22.5489C61.7559 22.8754 62.4481 23.3425 63.0416 23.9369C63.6351 24.5313 64.1016 25.2245 64.4276 25.9963C64.7653 26.7966 64.9367 27.6455 64.9367 28.5195C64.9367 29.3935 64.7653 30.2424 64.4276 31.0427C64.1016 31.8146 63.6351 32.5078 63.0416 33.1021C62.4481 33.6965 61.7559 34.1637 60.9852 34.4901C60.186 34.8284 59.3384 35 58.4657 35ZM58.4657 25.4036C56.7503 25.4036 55.3551 26.8008 55.3551 28.5187C55.3551 30.2365 56.7503 31.6338 58.4657 31.6338C60.181 31.6338 61.5762 30.2365 61.5762 28.5187C61.5762 26.8008 60.181 25.4036 58.4657 25.4036Z" fill="white"/>
<path d="M28.2639 22.1943H19.5952C20.0784 24.0386 21.7569 25.4032 23.7482 25.4032V25.4074H28.2639C28.6735 25.4074 29.0196 25.7539 29.0196 26.1642C29.0196 26.5744 28.6735 26.9209 28.2639 26.9209H23.5534C21.3674 26.9209 19.5894 28.7016 19.5894 30.8908C19.5894 33.0799 21.3674 34.8606 23.5534 34.8606V34.8639L30.6229 34.8606H32.2271V26.1642C32.2271 23.975 30.4491 22.1952 28.2639 22.1952M29.0196 31.6509H23.5534V31.6476C23.1438 31.6476 22.7977 31.301 22.7977 30.8899C22.7977 30.4789 23.1438 30.1331 23.5534 30.1331H29.0196V31.6509Z" fill="white"/>
<path d="M15.3838 22.1882H12.193C10.5145 22.189 8.93036 22.8504 7.73246 24.0492C6.53372 25.2497 5.87416 26.8369 5.87416 28.5205C5.87416 30.204 6.53455 31.7913 7.73246 32.9917C8.93036 34.1914 10.5136 34.8519 12.193 34.8528H18.491V18.9551C16.942 19.3611 15.7316 20.6135 15.3847 22.1874M12.1972 31.6406C11.3738 31.6406 10.5939 31.3141 10.0004 30.7205C9.40768 30.127 9.08083 29.3459 9.08083 28.5205C9.08083 27.695 9.40685 26.914 10.0004 26.3204C10.593 25.7269 11.373 25.4004 12.1972 25.4004H15.2827V31.6406H12.1972Z" fill="white"/>
</g>
</g>
</svg>
