<svg width="92" height="32" viewBox="0 0 92 32" fill="none" xmlns="http://www.w3.org/2000/svg">
<mask id="mask0_424_2073" style="mask-type:luminance" maskUnits="userSpaceOnUse" x="0" y="0" width="92" height="32">
<path d="M92 0H0V32H92V0Z" fill="white"/>
</mask>
<g mask="url(#mask0_424_2073)">
<mask id="mask1_424_2073" style="mask-type:luminance" maskUnits="userSpaceOnUse" x="0" y="0" width="92" height="32">
<path d="M92 0H0V32H92V0Z" fill="white"/>
</mask>
<g mask="url(#mask1_424_2073)">
<path d="M75.5841 11.6325V11.6287H73.6112C72.8611 11.6287 72.1507 11.3302 71.6101 10.7875C71.4448 10.6214 71.3025 10.4392 71.1844 10.2448H75.7562C77.7474 10.2448 79.367 8.6168 79.367 6.61527C79.367 4.61374 77.7474 2.98573 75.7562 2.98573V2.98267H73.5487V2.98802C72.0411 3.0041 70.621 3.6057 69.5443 4.68799C68.4523 5.78557 67.8516 7.23678 67.8516 8.77601C67.8516 10.3152 68.4531 11.7664 69.5443 12.864C70.576 13.9019 71.9238 14.4974 73.3614 14.5594V14.5655H75.5833H79.3662C78.9253 12.8793 77.3963 11.6317 75.5833 11.6317M71.6108 6.76529C72.1507 6.22262 72.8611 5.92411 73.6119 5.92411V5.92029H75.7569V5.92335C76.1301 5.92335 76.4453 6.24022 76.4453 6.61604C76.4453 6.99185 76.1301 7.30796 75.7569 7.30796H71.1852C71.3032 7.11355 71.4456 6.93138 71.6108 6.76529Z" fill="#3AE77E"/>
<path d="M64.7705 11.6142C64.2344 11.6142 63.7813 11.1588 63.7813 10.62V5.90203H64.7705V5.8982C66.5842 5.8982 68.1132 4.65059 68.5533 2.96441H63.779V0C62.1381 0.433219 60.916 1.91351 60.8635 3.68389H60.8589V10.62C60.8589 12.7876 62.6133 14.5511 64.7697 14.5511C64.7925 14.5511 68.5549 14.5434 68.5549 14.5434C68.117 12.8534 66.5858 11.6142 64.7697 11.6142" fill="#3AE77E"/>
<path d="M58.506 2.96436V2.97201C56.9747 2.97201 55.531 3.57668 54.4391 4.6735C53.3578 5.76038 52.7585 7.19474 52.7471 8.71713H52.7456V14.561H55.6673V8.76152C55.6673 8.0076 55.9643 7.29271 56.5041 6.75004C57.044 6.20737 57.7544 5.90886 58.5052 5.90886L59.8591 5.90121V2.96436H58.5052H58.506Z" fill="#3AE77E"/>
<path d="M23.0775 7.31355H18.7783C18.4014 7.31355 18.0824 6.99361 18.0824 6.61397C18.0824 6.23433 18.4014 5.91439 18.7783 5.91439H22.9336C24.7329 5.90597 26.2482 4.66448 26.6845 2.98901H18.7783C16.7902 2.98901 15.1729 4.6155 15.1729 6.61397C15.1729 8.61244 16.7902 10.2389 18.7791 10.2389H23.0782C23.4552 10.2389 23.7742 10.5596 23.7742 10.9385C23.7742 11.3174 23.4559 11.6381 23.0782 11.6381L18.658 11.6488C16.976 11.7713 15.5871 12.9706 15.1729 14.5627H23.0782C25.0664 14.5627 26.6837 12.937 26.6837 10.9377C26.6837 8.9385 25.0664 7.31278 23.0775 7.31278" fill="#3AE77E"/>
<path d="M37.5108 4.69734C36.4189 3.59975 34.9744 2.99585 33.4439 2.99585H27.6919V18.9767C29.3709 18.5351 30.6136 16.9974 30.6136 15.1727V14.5756H33.4431C34.9736 14.5756 36.4181 13.971 37.51 12.8742C38.602 11.7766 39.2027 10.3254 39.2027 8.78613C39.2027 7.2469 38.6012 5.7957 37.51 4.69811M35.4442 10.7961C34.9044 11.3388 34.1939 11.6373 33.4439 11.6373H30.6143V5.93194H33.4439C34.1939 5.93194 34.9044 6.23045 35.4442 6.77312C35.9841 7.31579 36.2811 8.02991 36.2811 8.78383C36.2811 9.53776 35.9841 10.2526 35.4442 10.7953" fill="#3AE77E"/>
<path d="M10.2034 8.83895C12.0439 8.78767 13.5949 7.57374 14.1554 5.9021H4.28773V5.90363C1.9219 5.91358 0 7.85158 0 10.2328C0 12.6139 1.91581 14.545 4.27631 14.5619L10.0824 14.5626H14.1554C13.5949 12.8902 12.0439 11.6763 10.2034 11.6258H4.30753C3.55674 11.6258 2.92169 10.9882 2.92169 10.2328C2.92169 9.4773 3.55597 8.83972 4.30753 8.83972L10.2034 8.83895Z" fill="#3AE77E"/>
<path d="M9.31619 0.0275879C7.47576 0.0788699 5.92469 1.2928 5.36426 2.96444H13.6306C15.471 2.91316 17.0221 1.69923 17.5825 0.0275879H9.31619Z" fill="#3AE77E"/>
<path d="M88.3936 7.31355H84.0945C83.7175 7.31355 83.3985 6.99361 83.3985 6.61397C83.3985 6.23433 83.7175 5.91439 84.0945 5.91439H88.2497C90.049 5.90597 91.5643 4.66448 92.0006 2.98901H84.0952C82.1071 2.98901 80.4897 4.6155 80.4897 6.61397C80.4897 8.61244 82.1071 10.2389 84.096 10.2389H88.3951C88.772 10.2389 89.0911 10.5596 89.0911 10.9385C89.0911 11.3174 88.7728 11.6381 88.3951 11.6381L83.9749 11.6488C82.2929 11.7713 80.904 12.9706 80.4897 14.5627H88.3951C90.3833 14.5627 92.0006 12.937 92.0006 10.9377C92.0006 8.9385 90.3833 7.31278 88.3944 7.31278" fill="#3AE77E"/>
<path d="M45.9862 14.7057C45.1912 14.7057 44.4191 14.5488 43.6912 14.2396C42.9891 13.9411 42.3586 13.514 41.818 12.9705C41.2774 12.4271 40.8525 11.7933 40.5555 11.0876C40.2479 10.3559 40.0918 9.57979 40.0918 8.7807C40.0918 7.98162 40.2479 7.2055 40.5555 6.47378C40.8525 5.76807 41.2774 5.13432 41.818 4.59088C42.3586 4.04745 42.9891 3.62035 43.6912 3.32184C44.4191 3.01262 45.1912 2.85571 45.9862 2.85571C46.7811 2.85571 47.5533 3.01262 48.2812 3.32184C48.9833 3.62035 49.6137 4.04745 50.1544 4.59088C50.695 5.13432 51.1199 5.76807 51.4169 6.47378C51.7245 7.2055 51.8806 7.98162 51.8806 8.7807C51.8806 9.57979 51.7245 10.3559 51.4169 11.0876C51.1199 11.7933 50.695 12.4271 50.1544 12.9705C49.6137 13.514 48.9833 13.9411 48.2812 14.2396C47.5533 14.5488 46.7811 14.7057 45.9862 14.7057ZM45.9862 5.93264C44.4237 5.93264 43.1528 7.2101 43.1528 8.7807C43.1528 10.3513 44.4237 11.6288 45.9862 11.6288C47.5487 11.6288 48.8195 10.3513 48.8195 8.7807C48.8195 7.2101 47.5487 5.93264 45.9862 5.93264Z" fill="#3AE77E"/>
<path d="M42.287 23.1275L36.7064 23.126C35.9457 23.126 35.303 22.48 35.303 21.7153C35.303 20.9507 35.9457 20.3047 36.7064 20.3047H43.0401C44.8387 20.3047 46.3463 19.0288 46.7156 17.3303H36.7071C34.3017 17.3303 32.3448 19.2974 32.3448 21.7153C32.3448 24.1332 34.3017 26.1003 36.7071 26.1003H42.2612C43.0218 26.1011 43.6645 26.7471 43.6645 27.5117C43.6645 28.2764 43.0218 28.9224 42.2612 28.9224H36.0188C34.2202 28.9224 32.7126 30.1983 32.3433 31.8967H42.2612C44.6666 31.8967 46.6235 29.9296 46.6235 27.5117C46.6235 25.0938 44.681 23.142 42.2886 23.1275" fill="#3AE77E"/>
<path d="M82.8526 28.9467V28.9429H80.8797C80.1297 28.9429 79.4185 28.6436 78.8786 28.101C78.7134 27.9349 78.571 27.7527 78.453 27.5583H83.0247C85.0159 27.5583 86.6355 25.9303 86.6355 23.9287C86.6355 21.9272 85.0159 20.2992 83.0247 20.2992V20.2961H80.8173V20.3015C79.3096 20.3176 77.8895 20.9192 76.8128 22.0015C75.7209 23.0991 75.1201 24.551 75.1201 26.0895C75.1201 27.6279 75.7217 29.0799 76.8128 30.1775C77.8446 31.2154 79.1924 31.8109 80.63 31.8729V31.879H82.8519H86.6348C86.1939 30.1928 84.6657 28.9452 82.8519 28.9452M78.8794 24.0795C79.4193 23.5369 80.1297 23.2384 80.8805 23.2384V23.2345H83.0255V23.2376C83.3986 23.2376 83.7139 23.5545 83.7139 23.9295C83.7139 24.3046 83.3986 24.6214 83.0255 24.6214H78.4537C78.5718 24.427 78.7142 24.2449 78.8794 24.0788" fill="#3AE77E"/>
<path d="M72.0395 28.9399C71.5034 28.9399 71.0504 28.4845 71.0504 27.9457V23.2277H72.0395V23.2239C73.8533 23.2239 75.3823 21.9763 75.8224 20.2901H71.0481V17.3257C69.4072 17.7589 68.185 19.2392 68.1325 21.0096H68.1279V27.9457C68.1279 30.1133 69.8823 31.8768 72.0387 31.8768C72.0616 31.8768 72.0837 31.8791 72.1065 31.8806L75.8239 31.8691C75.3861 30.1791 73.8548 28.9399 72.0387 28.9399" fill="#3AE77E"/>
<path d="M65.7748 20.2832V20.2909C64.2435 20.2909 62.7998 20.8955 61.7078 21.9923C60.6266 23.0792 60.0273 24.5136 60.0159 26.036H60.0151V31.8798H62.9368V26.0804C62.9368 25.3264 63.2338 24.6116 63.7737 24.0689C64.3135 23.5262 65.024 23.2277 65.7748 23.2277V23.2201H67.1286V20.2832H65.7748Z" fill="#3AE77E"/>
<path d="M53.2557 31.9999C52.4608 31.9999 51.6887 31.843 50.9607 31.5338C50.2586 31.2352 49.6282 30.8082 49.0875 30.2647C48.5469 29.7213 48.122 29.0875 47.8251 28.3818C47.5174 27.6501 47.3613 26.874 47.3613 26.0749C47.3613 25.2758 47.5174 24.4997 47.8251 23.768C48.122 23.0623 48.5469 22.4285 49.0875 21.8851C49.6282 21.3416 50.2586 20.9145 50.9607 20.616C51.6887 20.3068 52.4608 20.1499 53.2557 20.1499C54.0507 20.1499 54.8228 20.3068 55.5507 20.616C56.2528 20.9145 56.8833 21.3416 57.4239 21.8851C57.9645 22.4285 58.3894 23.0623 58.6864 23.768C58.994 24.4997 59.1501 25.2758 59.1501 26.0749C59.1501 26.874 58.994 27.6501 58.6864 28.3818C58.3894 29.0875 57.9645 29.7213 57.4239 30.2647C56.8833 30.8082 56.2528 31.2352 55.5507 31.5338C54.8228 31.843 54.0507 31.9999 53.2557 31.9999ZM53.2557 23.2261C51.6932 23.2261 50.4224 24.5035 50.4224 26.0741C50.4224 27.6447 51.6932 28.9222 53.2557 28.9222C54.8182 28.9222 56.0891 27.6447 56.0891 26.0741C56.0891 24.5035 54.8182 23.2261 53.2557 23.2261Z" fill="#3AE77E"/>
<path d="M25.7453 20.2925H17.8491C18.2892 21.9787 19.8182 23.2263 21.632 23.2263V23.2301H25.7453C26.1184 23.2301 26.4337 23.547 26.4337 23.922C26.4337 24.2971 26.1184 24.6139 25.7453 24.6139H21.4546C19.4634 24.6139 17.8438 26.242 17.8438 28.2435C17.8438 30.245 19.4634 31.873 21.4546 31.873V31.8761L27.8941 31.873H29.3554V23.922C29.3554 21.9205 27.7358 20.2932 25.7453 20.2932M26.4337 28.9385H21.4546V28.9354C21.0814 28.9354 20.7662 28.6185 20.7662 28.2427C20.7662 27.8669 21.0814 27.5508 21.4546 27.5508H26.4337V28.9385Z" fill="#3AE77E"/>
<path d="M14.0128 20.2863H11.1064C9.5774 20.2871 8.13445 20.8917 7.04329 21.9878C5.95137 23.0854 5.35059 24.5366 5.35059 26.0758C5.35059 27.6151 5.95213 29.0663 7.04329 30.1638C8.13445 31.2607 9.57664 31.8646 11.1064 31.8653H16.8432V17.3303C15.4322 17.7015 14.3296 18.8466 14.0136 20.2855M11.1102 28.9285C10.3602 28.9285 9.64974 28.63 9.10911 28.0873C8.56924 27.5446 8.27151 26.8305 8.27151 26.0758C8.27151 25.3211 8.56848 24.607 9.10911 24.0643C9.64898 23.5217 10.3594 23.2232 11.1102 23.2232H13.9207V28.9285H11.1102Z" fill="#3AE77E"/>
</g>
</g>
</svg>
