<svg width="22" height="22" viewBox="0 0 28 28" fill="none" xmlns="http://www.w3.org/2000/svg">
<path d="M13.9583 4.45303C13.8795 4.45274 13.8009 4.45274 13.722 4.45433C13.4328 4.46034 13.1435 4.48032 12.8559 4.51208C12.8703 4.5192 12.8793 4.52583 12.8761 4.53089L11.7991 6.2255L14.9748 8.34974L14.9695 8.35782L18.0041 8.36985L18.9415 6.40678L17.7316 5.23451C17.0498 4.94249 16.3354 4.72851 15.6059 4.59943C15.0624 4.50318 14.5103 4.45505 13.9583 4.45303ZM11.203 6.79212L8.03812 8.37251L7.4446 12.6009L9.65078 14.0471L13.7047 12.1807L14.3438 8.89355L11.203 6.79212ZM19.6397 6.80691L18.7266 8.71901L20.3057 11.8437L22.9725 13.5154L23.4585 12.6009C23.4682 12.6071 23.4779 12.6183 23.4868 12.6332C23.4537 12.4203 23.4132 12.2081 23.366 11.998C23.0889 10.7695 22.5672 9.59338 21.8406 8.56179C21.4508 8.0087 21.0016 7.49711 20.5044 7.03641L19.6397 6.80691ZM6.63494 7.79519C6.33819 8.14087 6.06529 8.50675 5.82119 8.89088C5.14761 9.95067 4.6851 11.1465 4.47038 12.3848C4.36567 12.988 4.31973 13.6018 4.33202 14.215L5.20214 14.4339L6.62139 12.6936L7.24315 8.26509L6.63494 7.79519ZM20.0721 12.6439L17.6739 14.5668L17.5248 18.9106L19.2275 19.8184L22.5441 17.6874L22.7334 14.3036L22.7294 14.3104L20.0721 12.6439ZM14.0202 12.9192L9.97971 14.7803L9.92737 18.0727L13.7582 20.5382L16.7204 18.9725L16.8681 14.6004L14.0202 12.9192ZM4.38573 15.0569C4.42484 15.4194 4.48413 15.7794 4.56431 16.1351C4.84125 17.3637 5.36439 18.5397 6.09108 19.5713C6.2575 19.8076 6.43569 20.0356 6.62277 20.2561L6.21998 18.187L6.22531 18.1855L5.06387 15.2274L4.38573 15.0569ZM9.42115 18.7025L7.20689 19.053L7.64195 21.2914C8.01049 21.6132 8.40279 21.9073 8.8156 22.1696C9.44346 22.5686 10.1189 22.8948 10.8217 23.1404L13.5126 22.5521L13.326 21.2148L9.42115 18.7025ZM22.4165 18.724L19.6571 20.4965L17.8523 22.5321L18.0418 22.7967C18.5585 22.5584 19.0545 22.2748 19.5202 21.9493C20.5501 21.2292 21.4367 20.3034 22.1103 19.2436C22.2181 19.0739 22.3196 18.9003 22.4165 18.724ZM17.1408 22.9201L13.7059 23.3337L12.5901 23.5767C13.7499 23.7486 14.9412 23.7075 16.084 23.4558C16.4885 23.3669 16.8868 23.25 17.2763 23.1095L17.1408 22.9201Z" fill="currentColor"/>
</svg>
