<svg width="22" height="22" viewBox="0 0 22 22" fill="none" xmlns="http://www.w3.org/2000/svg">
<path d="M5.50016 8.24996H4.12516C3.51737 8.24996 2.93448 8.00852 2.50471 7.57875C2.07494 7.14897 1.8335 6.56608 1.8335 5.95829C1.8335 5.3505 2.07494 4.76761 2.50471 4.33784C2.93448 3.90807 3.51737 3.66663 4.12516 3.66663H5.50016" stroke="currentColor" stroke-width="1.83333" stroke-linecap="round" stroke-linejoin="round"/>
<path d="M16.5 8.24996H17.875C18.4828 8.24996 19.0657 8.00852 19.4955 7.57875C19.9252 7.14897 20.1667 6.56608 20.1667 5.95829C20.1667 5.3505 19.9252 4.76761 19.4955 4.33784C19.0657 3.90807 18.4828 3.66663 17.875 3.66663H16.5" stroke="currentColor" stroke-width="1.83333" stroke-linecap="round" stroke-linejoin="round"/>
<path d="M3.6665 20.1666H18.3332" stroke="currentColor" stroke-width="1.83333" stroke-linecap="round" stroke-linejoin="round"/>
<path d="M9.1665 13.4384V15.5834C9.1665 16.0875 8.73567 16.4817 8.27734 16.6925C7.19567 17.1875 6.4165 18.5534 6.4165 20.1667" stroke="currentColor" stroke-width="1.83333" stroke-linecap="round" stroke-linejoin="round"/>
<path d="M12.8335 13.4384V15.5834C12.8335 16.0875 13.2643 16.4817 13.7227 16.6925C14.8043 17.1875 15.5835 18.5534 15.5835 20.1667" stroke="currentColor" stroke-width="1.83333" stroke-linecap="round" stroke-linejoin="round"/>
<path d="M16.5 1.83337H5.5V8.25004C5.5 9.70873 6.07946 11.1077 7.11091 12.1391C8.14236 13.1706 9.54131 13.75 11 13.75C12.4587 13.75 13.8576 13.1706 14.8891 12.1391C15.9205 11.1077 16.5 9.70873 16.5 8.25004V1.83337Z" stroke="currentColor" stroke-width="1.83333" stroke-linecap="round" stroke-linejoin="round"/>
</svg>
