<svg width="22" height="22" viewBox="0 0 22 22" fill="none" xmlns="http://www.w3.org/2000/svg">
<path d="M13.75 19.25V11.9167C13.75 11.6736 13.6534 11.4404 13.4815 11.2685C13.3096 11.0966 13.0764 11 12.8333 11H9.16667C8.92355 11 8.69039 11.0966 8.51849 11.2685C8.34658 11.4404 8.25 11.6736 8.25 11.9167V19.25" stroke="currentColor" stroke-width="1.83333" stroke-linecap="round" stroke-linejoin="round"/>
<path d="M2.75 9.16672C2.74994 8.90003 2.80806 8.63654 2.92031 8.39463C3.03255 8.15271 3.19623 7.9382 3.39992 7.76605L9.81658 2.26697C10.1475 1.9873 10.5667 1.83386 11 1.83386C11.4333 1.83386 11.8525 1.9873 12.1834 2.26697L18.6001 7.76605C18.8038 7.9382 18.9674 8.15271 19.0797 8.39463C19.1919 8.63654 19.2501 8.90003 19.25 9.16672V17.4167C19.25 17.9029 19.0568 18.3693 18.713 18.7131C18.3692 19.0569 17.9029 19.2501 17.4167 19.2501H4.58333C4.0971 19.2501 3.63079 19.0569 3.28697 18.7131C2.94315 18.3693 2.75 17.9029 2.75 17.4167V9.16672Z" stroke="currentColor" stroke-width="1.83333" stroke-linecap="round" stroke-linejoin="round"/>
</svg>
